<svg width="56" height="56" viewBox="0 0 56 56" fill="none" xmlns="http://www.w3.org/2000/svg">
<path d="M28 0C20.6017 0.0892588 13.5315 3.06791 8.2997 8.2997C3.06791 13.5315 0.0892588 20.6017 0 28C0.0892588 35.3983 3.06791 42.4685 8.2997 47.7003C13.5315 52.9321 20.6017 55.9107 28 56C35.3983 55.9107 42.4685 52.9321 47.7003 47.7003C52.9321 42.4685 55.9107 35.3983 56 28C55.9107 20.6017 52.9321 13.5315 47.7003 8.2997C42.4685 3.06791 35.3983 0.0892588 28 0V0ZM44 30H30V44H26V30H12V26H26V12H30V26H44V30Z" fill="black"/>
</svg>
